<?xml version="1.0" encoding="utf-8"?>
<!-- Generator: Adobe Illustrator 21.0.0, SVG Export Plug-In . SVG Version: 6.00 Build 0)  -->
<svg version="1.1" id="Layer_1" xmlns="http://www.w3.org/2000/svg" xmlns:xlink="http://www.w3.org/1999/xlink" x="0px" y="0px"
	 viewBox="0 0 30 30" style="enable-background:new 0 0 30 30;" xml:space="preserve">
<path d="M9,6.8c-0.1,0.2,0,5.7,0,5.7l4.9,2.8V9.6L9,6.8z"/>
<polygon points="10.1,5.2 15,2.6 15,7.8 "/>
<polygon points="12.9,17.3 8,14.6 3,17.3 8,19.8 "/>
<polygon points="13.9,24.4 9,27.2 9,21.6 13.9,18.7 "/>
<polygon points="7.1,27.2 7.1,21.5 2.1,18.7 2.1,24.4 "/>
<path d="M20.8,6.8c0.1,0.2,0,5.7,0,5.7L16,15.3V9.6L20.8,6.8z"/>
<polygon points="19.8,5.2 15,2.6 15,7.8 "/>
<polygon points="17,17.3 21.8,14.6 26.6,17.3 21.8,19.8 "/>
<polygon points="16,24.4 20.9,27.2 20.9,21.6 16,18.7 "/>
<polygon points="22.7,27.2 22.7,21.5 27.5,18.7 27.5,24.4 "/>
</svg>
